G04 Layer_Color=8388736*
%FSLAX25Y25*%
%MOIN*%
G70*
G01*
G75*
%ADD20R,0.07099X0.06706*%
%ADD21R,0.06706X0.07099*%
%ADD22C,0.06800*%
%ADD23O,0.12800X0.07300*%
%ADD24R,0.12800X0.07300*%
%ADD25C,0.05800*%
D20*
X295276Y85630D02*
D03*
Y71850D02*
D03*
Y386811D02*
D03*
Y400591D02*
D03*
D21*
X308071Y78740D02*
D03*
X321850D02*
D03*
X308071Y118110D02*
D03*
X321850D02*
D03*
X308071Y157480D02*
D03*
X321850D02*
D03*
X308071Y196850D02*
D03*
X321850D02*
D03*
X308071Y236221D02*
D03*
X321850D02*
D03*
X308071Y275591D02*
D03*
X321850D02*
D03*
X308071Y314961D02*
D03*
X321850D02*
D03*
X308071Y354331D02*
D03*
X321850D02*
D03*
X308071Y393701D02*
D03*
X321850D02*
D03*
D22*
X300276Y413386D02*
D03*
X290275Y413385D02*
D03*
X300276Y59055D02*
D03*
X290275Y59055D02*
D03*
D23*
X283465Y246220D02*
D03*
Y236221D02*
D03*
Y226220D02*
D03*
Y206221D02*
D03*
Y216220D02*
D03*
Y276220D02*
D03*
Y256221D02*
D03*
Y266220D02*
D03*
Y196221D02*
D03*
Y186221D02*
D03*
D24*
Y286221D02*
D03*
D25*
X330709Y78740D02*
D03*
Y118110D02*
D03*
Y157480D02*
D03*
Y196850D02*
D03*
Y236221D02*
D03*
Y275591D02*
D03*
Y314961D02*
D03*
Y354331D02*
D03*
Y393701D02*
D03*
M02*
