M48
;Layer_Color=9474304
;FILE_FORMAT=2:5
INCH,TZ
;TYPE=PLATED
T1F00S00C0.02800
T2F00S00C0.03150
T3F00S00C0.03543
%
T01
X330709Y78740
Y118110
Y157480
Y196850
Y236221
Y275591
Y314961
Y354331
Y393701
T02
X290275Y59055
X300276Y59055
Y413386
X290275Y413385
T03
X283465Y186221
Y196221
Y206221
Y216220
Y226220
Y236221
Y246220
Y256221
Y266220
Y276220
Y286221
M30
