G04 Layer_Color=16711935*
%FSLAX25Y25*%
%MOIN*%
G70*
G01*
G75*
%ADD22C,0.06800*%
%ADD23O,0.12800X0.07300*%
%ADD24R,0.12800X0.07300*%
%ADD25C,0.05800*%
%ADD26R,0.04737X0.05131*%
D22*
X300276Y413386D02*
D03*
X290275Y413385D02*
D03*
X300276Y59055D02*
D03*
X290275Y59055D02*
D03*
D23*
X283465Y246220D02*
D03*
Y236221D02*
D03*
Y226220D02*
D03*
Y206221D02*
D03*
Y216220D02*
D03*
Y276220D02*
D03*
Y256221D02*
D03*
Y266220D02*
D03*
Y196221D02*
D03*
Y186221D02*
D03*
D24*
Y286221D02*
D03*
D25*
X330709Y78740D02*
D03*
Y118110D02*
D03*
Y157480D02*
D03*
Y196850D02*
D03*
Y236221D02*
D03*
Y275591D02*
D03*
Y314961D02*
D03*
Y354331D02*
D03*
Y393701D02*
D03*
D26*
X318779Y51024D02*
D03*
X311260D02*
D03*
X318779Y66969D02*
D03*
X311260D02*
D03*
X306968Y110079D02*
D03*
X299449D02*
D03*
X306968Y126024D02*
D03*
X299449D02*
D03*
X310906Y149449D02*
D03*
X303386D02*
D03*
X310906Y165394D02*
D03*
X303386D02*
D03*
X314843Y188819D02*
D03*
X307323D02*
D03*
X314843Y204764D02*
D03*
X307323D02*
D03*
X310906Y306929D02*
D03*
X303386D02*
D03*
X310906Y322874D02*
D03*
X303386D02*
D03*
X306968Y346299D02*
D03*
X299449D02*
D03*
X306968Y362244D02*
D03*
X299449D02*
D03*
X318779Y405354D02*
D03*
X311260D02*
D03*
X318779Y421299D02*
D03*
X311260D02*
D03*
X318779Y228189D02*
D03*
X311260D02*
D03*
X318779Y244134D02*
D03*
X311260D02*
D03*
X314843Y267559D02*
D03*
X307323D02*
D03*
X314843Y283504D02*
D03*
X307323D02*
D03*
M02*
