G04 Layer_Physical_Order=1*
G04 Layer_Color=255*
%FSLAX25Y25*%
%MOIN*%
G70*
G01*
G75*
%ADD10R,0.06299X0.05906*%
%ADD11R,0.05906X0.06299*%
%ADD12C,0.03000*%
%ADD13C,0.02000*%
%ADD14C,0.06000*%
%ADD15O,0.12000X0.06500*%
%ADD16R,0.12000X0.06500*%
%ADD17C,0.05000*%
G36*
X334646Y396783D02*
X334146Y396614D01*
X333918Y396910D01*
X332978Y397632D01*
X331883Y398085D01*
X330709Y398240D01*
X329534Y398085D01*
X328439Y397632D01*
X327917Y397231D01*
X326803D01*
Y398850D01*
X316898D01*
Y388551D01*
X326803D01*
Y390171D01*
X327917D01*
X328439Y389770D01*
X329534Y389317D01*
X330709Y389162D01*
X331883Y389317D01*
X332978Y389770D01*
X333918Y390491D01*
X334146Y390788D01*
X334646Y390618D01*
Y357413D01*
X334146Y357244D01*
X333918Y357540D01*
X332978Y358261D01*
X331883Y358715D01*
X330709Y358870D01*
X329534Y358715D01*
X328439Y358261D01*
X327917Y357861D01*
X326803D01*
Y359480D01*
X316898D01*
Y349181D01*
X326803D01*
Y350800D01*
X327917D01*
X328439Y350400D01*
X329534Y349946D01*
X330709Y349792D01*
X331883Y349946D01*
X332978Y350400D01*
X333918Y351121D01*
X334146Y351418D01*
X334646Y351248D01*
Y318043D01*
X334146Y317874D01*
X333918Y318170D01*
X332978Y318891D01*
X331883Y319345D01*
X330709Y319499D01*
X329534Y319345D01*
X328439Y318891D01*
X327917Y318491D01*
X326803D01*
Y320110D01*
X316898D01*
Y309811D01*
X326803D01*
Y311430D01*
X327917D01*
X328439Y311030D01*
X329534Y310577D01*
X330709Y310422D01*
X331883Y310577D01*
X332978Y311030D01*
X333918Y311751D01*
X334146Y312048D01*
X334646Y311878D01*
Y278673D01*
X334146Y278503D01*
X333918Y278800D01*
X332978Y279521D01*
X331883Y279975D01*
X330709Y280129D01*
X329534Y279975D01*
X328439Y279521D01*
X327917Y279121D01*
X326803D01*
Y280740D01*
X316898D01*
Y270441D01*
X326803D01*
Y272060D01*
X327917D01*
X328439Y271660D01*
X329534Y271206D01*
X330709Y271052D01*
X331883Y271206D01*
X332978Y271660D01*
X333918Y272381D01*
X334146Y272678D01*
X334646Y272508D01*
Y239303D01*
X334146Y239133D01*
X333918Y239430D01*
X332978Y240151D01*
X331883Y240605D01*
X330709Y240759D01*
X329534Y240605D01*
X328439Y240151D01*
X327917Y239751D01*
X326803D01*
Y241370D01*
X316898D01*
Y231071D01*
X326803D01*
Y232690D01*
X327917D01*
X328439Y232290D01*
X329534Y231836D01*
X330709Y231682D01*
X331883Y231836D01*
X332978Y232290D01*
X333918Y233011D01*
X334146Y233308D01*
X334646Y233138D01*
Y199933D01*
X334146Y199763D01*
X333918Y200060D01*
X332978Y200781D01*
X331883Y201235D01*
X330709Y201389D01*
X329534Y201235D01*
X328439Y200781D01*
X327917Y200381D01*
X326803D01*
Y202000D01*
X316898D01*
Y191701D01*
X326803D01*
Y193320D01*
X327917D01*
X328439Y192920D01*
X329534Y192466D01*
X330709Y192312D01*
X331883Y192466D01*
X332978Y192920D01*
X333918Y193641D01*
X334146Y193938D01*
X334646Y193768D01*
Y160563D01*
X334146Y160393D01*
X333918Y160690D01*
X332978Y161411D01*
X331883Y161864D01*
X330709Y162019D01*
X329534Y161864D01*
X328439Y161411D01*
X327917Y161011D01*
X326803D01*
Y162630D01*
X316898D01*
Y152331D01*
X326803D01*
Y153950D01*
X327917D01*
X328439Y153550D01*
X329534Y153096D01*
X330709Y152942D01*
X331883Y153096D01*
X332978Y153550D01*
X333918Y154271D01*
X334146Y154567D01*
X334646Y154398D01*
Y121193D01*
X334146Y121023D01*
X333918Y121320D01*
X332978Y122041D01*
X331883Y122494D01*
X330709Y122649D01*
X329534Y122494D01*
X328439Y122041D01*
X327917Y121640D01*
X326803D01*
Y123260D01*
X316898D01*
Y112961D01*
X326803D01*
Y114580D01*
X327917D01*
X328439Y114180D01*
X329534Y113726D01*
X330709Y113571D01*
X331883Y113726D01*
X332978Y114180D01*
X333918Y114901D01*
X334146Y115197D01*
X334646Y115028D01*
Y81823D01*
X334146Y81653D01*
X333918Y81950D01*
X332978Y82671D01*
X331883Y83124D01*
X330709Y83279D01*
X329534Y83124D01*
X328439Y82671D01*
X327917Y82270D01*
X326803D01*
Y83890D01*
X316898D01*
Y73591D01*
X326803D01*
Y75210D01*
X327917D01*
X328439Y74809D01*
X329534Y74356D01*
X330709Y74201D01*
X331883Y74356D01*
X332978Y74809D01*
X333918Y75531D01*
X334146Y75827D01*
X334646Y75658D01*
Y39370D01*
X275591D01*
Y59055D01*
X39370D01*
Y98425D01*
X275591D01*
Y193565D01*
X276091Y193665D01*
X276129Y193573D01*
X276970Y192476D01*
X278067Y191635D01*
X279344Y191106D01*
X280715Y190925D01*
X286215D01*
X287585Y191106D01*
X288862Y191635D01*
X289959Y192476D01*
X290800Y193573D01*
X291329Y194850D01*
X291510Y196221D01*
X291329Y197591D01*
X290800Y198868D01*
X289959Y199965D01*
X288862Y200806D01*
X288466Y200971D01*
Y201470D01*
X288862Y201635D01*
X289959Y202476D01*
X290800Y203573D01*
X291329Y204850D01*
X291510Y206221D01*
X291329Y207591D01*
X290800Y208868D01*
X289959Y209965D01*
X288862Y210806D01*
X288466Y210970D01*
Y211471D01*
X288862Y211635D01*
X289959Y212476D01*
X290800Y213573D01*
X291329Y214850D01*
X291510Y216220D01*
X291329Y217591D01*
X290800Y218868D01*
X289959Y219965D01*
X288862Y220806D01*
X288466Y220971D01*
Y221470D01*
X288862Y221635D01*
X289959Y222476D01*
X290800Y223573D01*
X291329Y224850D01*
X291510Y226220D01*
X291329Y227591D01*
X290800Y228868D01*
X289959Y229965D01*
X288862Y230806D01*
X288466Y230971D01*
Y231470D01*
X288862Y231635D01*
X289959Y232476D01*
X290800Y233573D01*
X291329Y234850D01*
X291510Y236221D01*
X291329Y237591D01*
X290800Y238868D01*
X289959Y239965D01*
X288862Y240806D01*
X288466Y240970D01*
Y241471D01*
X288862Y241635D01*
X289959Y242476D01*
X290800Y243573D01*
X291329Y244850D01*
X291510Y246220D01*
X291329Y247591D01*
X290800Y248868D01*
X289959Y249965D01*
X288862Y250806D01*
X288466Y250971D01*
Y251470D01*
X288862Y251635D01*
X289959Y252476D01*
X290800Y253573D01*
X291329Y254850D01*
X291510Y256221D01*
X291329Y257591D01*
X290800Y258868D01*
X289959Y259965D01*
X288862Y260806D01*
X288466Y260970D01*
Y261471D01*
X288862Y261635D01*
X289959Y262476D01*
X290800Y263573D01*
X291329Y264850D01*
X291510Y266220D01*
X291329Y267591D01*
X290800Y268868D01*
X289959Y269965D01*
X288862Y270806D01*
X288466Y270971D01*
Y271470D01*
X288862Y271635D01*
X289959Y272476D01*
X290800Y273573D01*
X291329Y274850D01*
X291510Y276220D01*
X291329Y277591D01*
X290800Y278868D01*
X289959Y279965D01*
X289300Y280470D01*
X289470Y280971D01*
X291465D01*
Y283195D01*
X305045D01*
Y280740D01*
X303118D01*
Y270441D01*
X305045D01*
Y241370D01*
X303118D01*
Y231071D01*
X305045D01*
Y202000D01*
X303118D01*
Y191701D01*
X305045D01*
Y162630D01*
X303118D01*
Y152331D01*
X305045D01*
Y123260D01*
X303118D01*
Y112961D01*
X305045D01*
Y88656D01*
X300425D01*
Y90583D01*
X290126D01*
Y80677D01*
X300425D01*
Y82604D01*
X303118D01*
Y73591D01*
X313024D01*
Y83890D01*
X311097D01*
Y85630D01*
Y112961D01*
X313024D01*
Y123260D01*
X311097D01*
Y152331D01*
X313024D01*
Y162630D01*
X311097D01*
Y191701D01*
X313024D01*
Y202000D01*
X311097D01*
Y231071D01*
X313024D01*
Y241370D01*
X311097D01*
Y270441D01*
X313024D01*
Y280740D01*
X311097D01*
Y286221D01*
Y309811D01*
X313024D01*
Y320110D01*
X311097D01*
Y349181D01*
X313024D01*
Y359480D01*
X311097D01*
Y386811D01*
Y388551D01*
X313024D01*
Y398850D01*
X303118D01*
Y389837D01*
X300425D01*
Y391764D01*
X290126D01*
Y381858D01*
X300425D01*
Y383785D01*
X305045D01*
Y359480D01*
X303118D01*
Y349181D01*
X305045D01*
Y320110D01*
X303118D01*
Y309811D01*
X305045D01*
Y289246D01*
X291465D01*
Y291471D01*
X275591D01*
Y374016D01*
X39370D01*
Y413386D01*
X275591D01*
Y433071D01*
X334646D01*
Y396783D01*
D02*
G37*
%LPC*%
G36*
X177939Y92590D02*
X176391D01*
X176259Y92564D01*
X176125Y92573D01*
X174590Y92371D01*
X174463Y92328D01*
X174328Y92319D01*
X172833Y91918D01*
X172712Y91859D01*
X172580Y91832D01*
X171150Y91240D01*
X171038Y91165D01*
X170911Y91122D01*
X169570Y90348D01*
X169469Y90259D01*
X169348Y90200D01*
X168120Y89257D01*
X168031Y89156D01*
X167919Y89081D01*
X166824Y87986D01*
X166750Y87875D01*
X166648Y87786D01*
X165706Y86558D01*
X165647Y86437D01*
X165558Y86336D01*
X164784Y84995D01*
X164740Y84867D01*
X164666Y84756D01*
X164073Y83325D01*
X164047Y83193D01*
X163988Y83073D01*
X163587Y81577D01*
X163578Y81443D01*
X163535Y81315D01*
X163333Y79780D01*
X163341Y79646D01*
X163315Y79514D01*
Y77966D01*
X163341Y77834D01*
X163333Y77700D01*
X163535Y76165D01*
X163578Y76037D01*
X163587Y75903D01*
X163988Y74408D01*
X164047Y74287D01*
X164073Y74155D01*
X164666Y72725D01*
X164740Y72613D01*
X164784Y72486D01*
X165558Y71145D01*
X165647Y71043D01*
X165706Y70923D01*
X166648Y69695D01*
X166750Y69606D01*
X166824Y69494D01*
X167919Y68399D01*
X168031Y68325D01*
X168120Y68223D01*
X169348Y67281D01*
X169469Y67221D01*
X169570Y67133D01*
X170911Y66359D01*
X171038Y66315D01*
X171150Y66241D01*
X172580Y65648D01*
X172712Y65622D01*
X172833Y65562D01*
X174328Y65162D01*
X174463Y65153D01*
X174590Y65109D01*
X176125Y64907D01*
X176259Y64916D01*
X176391Y64890D01*
X177939D01*
X178071Y64916D01*
X178206Y64907D01*
X179741Y65109D01*
X179868Y65153D01*
X180002Y65162D01*
X181498Y65562D01*
X181618Y65622D01*
X181750Y65648D01*
X183181Y66241D01*
X183293Y66315D01*
X183420Y66359D01*
X184761Y67133D01*
X184862Y67221D01*
X184983Y67281D01*
X186211Y68223D01*
X186300Y68325D01*
X186411Y68399D01*
X187506Y69494D01*
X187581Y69606D01*
X187682Y69695D01*
X188625Y70923D01*
X188684Y71043D01*
X188773Y71145D01*
X189547Y72486D01*
X189590Y72613D01*
X189665Y72725D01*
X190258Y74155D01*
X190284Y74287D01*
X190343Y74408D01*
X190744Y75903D01*
X190753Y76038D01*
X190796Y76165D01*
X190998Y77700D01*
X190989Y77834D01*
X191016Y77966D01*
Y79514D01*
X190989Y79646D01*
X190998Y79781D01*
X190796Y81315D01*
X190753Y81443D01*
X190744Y81577D01*
X190343Y83073D01*
X190284Y83193D01*
X190258Y83325D01*
X189665Y84756D01*
X189590Y84867D01*
X189547Y84995D01*
X188773Y86336D01*
X188684Y86437D01*
X188625Y86558D01*
X187682Y87786D01*
X187581Y87875D01*
X187506Y87986D01*
X186411Y89081D01*
X186300Y89156D01*
X186211Y89257D01*
X184983Y90200D01*
X184862Y90259D01*
X184761Y90348D01*
X183420Y91122D01*
X183293Y91165D01*
X183181Y91240D01*
X181750Y91832D01*
X181618Y91859D01*
X181498Y91918D01*
X180002Y92319D01*
X179868Y92328D01*
X179741Y92371D01*
X178206Y92573D01*
X178071Y92564D01*
X177939Y92590D01*
D02*
G37*
G36*
X217310D02*
X215761D01*
X215629Y92564D01*
X215495Y92573D01*
X213960Y92371D01*
X213833Y92328D01*
X213699Y92319D01*
X212203Y91918D01*
X212082Y91859D01*
X211950Y91832D01*
X210520Y91240D01*
X210408Y91165D01*
X210281Y91122D01*
X208940Y90348D01*
X208839Y90259D01*
X208718Y90200D01*
X207490Y89257D01*
X207401Y89156D01*
X207289Y89081D01*
X206194Y87986D01*
X206120Y87875D01*
X206019Y87786D01*
X205076Y86558D01*
X205017Y86437D01*
X204928Y86336D01*
X204154Y84995D01*
X204111Y84867D01*
X204036Y84756D01*
X203443Y83325D01*
X203417Y83193D01*
X203358Y83073D01*
X202957Y81577D01*
X202948Y81443D01*
X202905Y81315D01*
X202703Y79780D01*
X202712Y79646D01*
X202685Y79514D01*
Y77966D01*
X202712Y77834D01*
X202703Y77700D01*
X202905Y76165D01*
X202948Y76037D01*
X202957Y75903D01*
X203358Y74408D01*
X203417Y74287D01*
X203443Y74155D01*
X204036Y72725D01*
X204111Y72613D01*
X204154Y72486D01*
X204928Y71145D01*
X205017Y71043D01*
X205076Y70923D01*
X206019Y69695D01*
X206120Y69606D01*
X206194Y69494D01*
X207289Y68399D01*
X207401Y68325D01*
X207490Y68223D01*
X208718Y67281D01*
X208839Y67221D01*
X208940Y67133D01*
X210281Y66359D01*
X210408Y66315D01*
X210520Y66241D01*
X211950Y65648D01*
X212082Y65622D01*
X212203Y65562D01*
X213699Y65162D01*
X213833Y65153D01*
X213960Y65109D01*
X215495Y64907D01*
X215629Y64916D01*
X215761Y64890D01*
X217310D01*
X217442Y64916D01*
X217576Y64907D01*
X219111Y65109D01*
X219238Y65153D01*
X219372Y65162D01*
X220868Y65562D01*
X220988Y65622D01*
X221121Y65648D01*
X222551Y66241D01*
X222663Y66315D01*
X222790Y66359D01*
X224131Y67133D01*
X224232Y67221D01*
X224353Y67281D01*
X225581Y68223D01*
X225670Y68325D01*
X225782Y68399D01*
X226876Y69494D01*
X226951Y69606D01*
X227052Y69695D01*
X227995Y70923D01*
X228054Y71043D01*
X228143Y71145D01*
X228917Y72486D01*
X228960Y72613D01*
X229035Y72725D01*
X229628Y74155D01*
X229654Y74287D01*
X229713Y74408D01*
X230114Y75903D01*
X230123Y76038D01*
X230166Y76165D01*
X230368Y77700D01*
X230359Y77834D01*
X230386Y77966D01*
Y79514D01*
X230359Y79646D01*
X230368Y79781D01*
X230166Y81315D01*
X230123Y81443D01*
X230114Y81577D01*
X229713Y83073D01*
X229654Y83193D01*
X229628Y83325D01*
X229035Y84756D01*
X228960Y84867D01*
X228917Y84995D01*
X228143Y86336D01*
X228054Y86437D01*
X227995Y86558D01*
X227052Y87786D01*
X226951Y87875D01*
X226876Y87986D01*
X225782Y89081D01*
X225670Y89156D01*
X225581Y89257D01*
X224353Y90200D01*
X224232Y90259D01*
X224131Y90348D01*
X222790Y91122D01*
X222663Y91165D01*
X222551Y91240D01*
X221121Y91832D01*
X220988Y91859D01*
X220868Y91918D01*
X219372Y92319D01*
X219238Y92328D01*
X219111Y92371D01*
X217576Y92573D01*
X217442Y92564D01*
X217310Y92590D01*
D02*
G37*
G36*
X256680D02*
X255131D01*
X254999Y92564D01*
X254865Y92573D01*
X253330Y92371D01*
X253203Y92328D01*
X253069Y92319D01*
X251573Y91918D01*
X251452Y91859D01*
X251321Y91832D01*
X249890Y91240D01*
X249778Y91165D01*
X249651Y91122D01*
X248310Y90348D01*
X248209Y90259D01*
X248088Y90200D01*
X246860Y89257D01*
X246771Y89156D01*
X246659Y89081D01*
X245565Y87986D01*
X245490Y87875D01*
X245389Y87786D01*
X244446Y86558D01*
X244387Y86437D01*
X244298Y86336D01*
X243524Y84995D01*
X243481Y84867D01*
X243406Y84756D01*
X242813Y83325D01*
X242787Y83193D01*
X242728Y83073D01*
X242327Y81577D01*
X242318Y81443D01*
X242275Y81315D01*
X242073Y79780D01*
X242082Y79646D01*
X242055Y79514D01*
Y77966D01*
X242082Y77834D01*
X242073Y77700D01*
X242275Y76165D01*
X242318Y76037D01*
X242327Y75903D01*
X242728Y74408D01*
X242787Y74287D01*
X242813Y74155D01*
X243406Y72725D01*
X243481Y72613D01*
X243524Y72486D01*
X244298Y71145D01*
X244387Y71043D01*
X244446Y70923D01*
X245389Y69695D01*
X245490Y69606D01*
X245565Y69494D01*
X246659Y68399D01*
X246771Y68325D01*
X246860Y68223D01*
X248088Y67281D01*
X248209Y67221D01*
X248310Y67133D01*
X249651Y66359D01*
X249778Y66315D01*
X249890Y66241D01*
X251321Y65648D01*
X251452Y65622D01*
X251573Y65562D01*
X253069Y65162D01*
X253203Y65153D01*
X253330Y65109D01*
X254865Y64907D01*
X254999Y64916D01*
X255131Y64890D01*
X256680D01*
X256812Y64916D01*
X256946Y64907D01*
X258481Y65109D01*
X258608Y65153D01*
X258742Y65162D01*
X260238Y65562D01*
X260359Y65622D01*
X260490Y65648D01*
X261921Y66241D01*
X262033Y66315D01*
X262160Y66359D01*
X263501Y67133D01*
X263602Y67221D01*
X263723Y67281D01*
X264951Y68223D01*
X265040Y68325D01*
X265152Y68399D01*
X266247Y69494D01*
X266321Y69606D01*
X266422Y69695D01*
X267365Y70923D01*
X267424Y71043D01*
X267513Y71145D01*
X268287Y72486D01*
X268330Y72613D01*
X268405Y72725D01*
X268998Y74155D01*
X269024Y74287D01*
X269083Y74408D01*
X269484Y75903D01*
X269493Y76038D01*
X269536Y76165D01*
X269738Y77700D01*
X269729Y77834D01*
X269756Y77966D01*
Y79514D01*
X269729Y79646D01*
X269738Y79781D01*
X269536Y81315D01*
X269493Y81443D01*
X269484Y81577D01*
X269083Y83073D01*
X269024Y83193D01*
X268998Y83325D01*
X268405Y84756D01*
X268330Y84867D01*
X268287Y84995D01*
X267513Y86336D01*
X267424Y86437D01*
X267365Y86558D01*
X266422Y87786D01*
X266321Y87875D01*
X266247Y87986D01*
X265152Y89081D01*
X265040Y89156D01*
X264951Y89257D01*
X263723Y90200D01*
X263602Y90259D01*
X263501Y90348D01*
X262160Y91122D01*
X262033Y91165D01*
X261921Y91240D01*
X260490Y91832D01*
X260359Y91859D01*
X260238Y91918D01*
X258742Y92319D01*
X258608Y92328D01*
X258481Y92371D01*
X256946Y92573D01*
X256812Y92564D01*
X256680Y92590D01*
D02*
G37*
G36*
X59829D02*
X58281D01*
X58149Y92564D01*
X58015Y92573D01*
X56480Y92371D01*
X56352Y92328D01*
X56218Y92319D01*
X54723Y91918D01*
X54602Y91859D01*
X54470Y91832D01*
X53040Y91240D01*
X52928Y91165D01*
X52800Y91122D01*
X51460Y90348D01*
X51358Y90259D01*
X51238Y90200D01*
X50010Y89257D01*
X49921Y89156D01*
X49809Y89081D01*
X48714Y87986D01*
X48639Y87875D01*
X48538Y87786D01*
X47596Y86558D01*
X47536Y86437D01*
X47448Y86336D01*
X46673Y84995D01*
X46630Y84867D01*
X46555Y84756D01*
X45963Y83325D01*
X45937Y83193D01*
X45877Y83073D01*
X45476Y81577D01*
X45468Y81443D01*
X45424Y81315D01*
X45222Y79780D01*
X45231Y79646D01*
X45205Y79514D01*
Y77966D01*
X45231Y77834D01*
X45222Y77700D01*
X45424Y76165D01*
X45468Y76037D01*
X45476Y75903D01*
X45877Y74408D01*
X45937Y74287D01*
X45963Y74155D01*
X46555Y72725D01*
X46630Y72613D01*
X46673Y72486D01*
X47448Y71145D01*
X47536Y71043D01*
X47596Y70923D01*
X48538Y69695D01*
X48639Y69606D01*
X48714Y69494D01*
X49809Y68399D01*
X49921Y68325D01*
X50010Y68223D01*
X51238Y67281D01*
X51358Y67221D01*
X51460Y67133D01*
X52800Y66359D01*
X52928Y66315D01*
X53040Y66241D01*
X54470Y65648D01*
X54602Y65622D01*
X54723Y65562D01*
X56218Y65162D01*
X56352Y65153D01*
X56480Y65109D01*
X58015Y64907D01*
X58149Y64916D01*
X58281Y64890D01*
X59829D01*
X59961Y64916D01*
X60095Y64907D01*
X61630Y65109D01*
X61758Y65153D01*
X61892Y65162D01*
X63388Y65562D01*
X63508Y65622D01*
X63640Y65648D01*
X65071Y66241D01*
X65182Y66315D01*
X65310Y66359D01*
X66651Y67133D01*
X66752Y67221D01*
X66872Y67281D01*
X68101Y68223D01*
X68189Y68325D01*
X68301Y68399D01*
X69396Y69494D01*
X69471Y69606D01*
X69572Y69695D01*
X70515Y70923D01*
X70574Y71043D01*
X70663Y71145D01*
X71437Y72486D01*
X71480Y72613D01*
X71555Y72725D01*
X72147Y74155D01*
X72174Y74287D01*
X72233Y74408D01*
X72634Y75903D01*
X72642Y76038D01*
X72686Y76165D01*
X72888Y77700D01*
X72879Y77834D01*
X72905Y77966D01*
Y79514D01*
X72879Y79646D01*
X72888Y79781D01*
X72686Y81315D01*
X72642Y81443D01*
X72634Y81577D01*
X72233Y83073D01*
X72174Y83193D01*
X72147Y83325D01*
X71555Y84756D01*
X71480Y84867D01*
X71437Y84995D01*
X70663Y86336D01*
X70574Y86437D01*
X70515Y86558D01*
X69572Y87786D01*
X69471Y87875D01*
X69396Y87986D01*
X68301Y89081D01*
X68189Y89156D01*
X68101Y89257D01*
X66872Y90200D01*
X66752Y90259D01*
X66651Y90348D01*
X65310Y91122D01*
X65182Y91165D01*
X65071Y91240D01*
X63640Y91832D01*
X63508Y91859D01*
X63388Y91918D01*
X61892Y92319D01*
X61758Y92328D01*
X61630Y92371D01*
X60095Y92573D01*
X59961Y92564D01*
X59829Y92590D01*
D02*
G37*
G36*
X300425Y76803D02*
X290126D01*
Y66898D01*
X291745D01*
Y65517D01*
X290320Y64092D01*
X290275Y64098D01*
X288970Y63926D01*
X287754Y63422D01*
X286709Y62621D01*
X285908Y61576D01*
X285404Y60360D01*
X285232Y59055D01*
X285404Y57749D01*
X285908Y56533D01*
X286709Y55489D01*
X287754Y54687D01*
X288970Y54184D01*
X290275Y54012D01*
X291581Y54184D01*
X292797Y54687D01*
X293841Y55489D01*
X294643Y56533D01*
X295147Y57749D01*
X295318Y59055D01*
X295312Y59100D01*
X297772Y61559D01*
X298333Y62290D01*
X298686Y63141D01*
X298806Y64055D01*
Y66898D01*
X300425D01*
Y76803D01*
D02*
G37*
G36*
X138569Y92590D02*
X137021D01*
X136889Y92564D01*
X136755Y92573D01*
X135220Y92371D01*
X135093Y92328D01*
X134958Y92319D01*
X133463Y91918D01*
X133342Y91859D01*
X133210Y91832D01*
X131780Y91240D01*
X131668Y91165D01*
X131541Y91122D01*
X130200Y90348D01*
X130099Y90259D01*
X129978Y90200D01*
X128750Y89257D01*
X128661Y89156D01*
X128549Y89081D01*
X127454Y87986D01*
X127380Y87875D01*
X127278Y87786D01*
X126336Y86558D01*
X126276Y86437D01*
X126188Y86336D01*
X125414Y84995D01*
X125370Y84867D01*
X125296Y84756D01*
X124703Y83325D01*
X124677Y83193D01*
X124617Y83073D01*
X124217Y81577D01*
X124208Y81443D01*
X124165Y81315D01*
X123962Y79780D01*
X123971Y79646D01*
X123945Y79514D01*
Y77966D01*
X123971Y77834D01*
X123962Y77700D01*
X124165Y76165D01*
X124208Y76037D01*
X124217Y75903D01*
X124617Y74408D01*
X124677Y74287D01*
X124703Y74155D01*
X125296Y72725D01*
X125370Y72613D01*
X125414Y72486D01*
X126188Y71145D01*
X126276Y71043D01*
X126336Y70923D01*
X127278Y69695D01*
X127380Y69606D01*
X127454Y69494D01*
X128549Y68399D01*
X128661Y68325D01*
X128750Y68223D01*
X129978Y67281D01*
X130099Y67221D01*
X130200Y67133D01*
X131541Y66359D01*
X131668Y66315D01*
X131780Y66241D01*
X133210Y65648D01*
X133342Y65622D01*
X133463Y65562D01*
X134958Y65162D01*
X135093Y65153D01*
X135220Y65109D01*
X136755Y64907D01*
X136889Y64916D01*
X137021Y64890D01*
X138569D01*
X138701Y64916D01*
X138836Y64907D01*
X140371Y65109D01*
X140498Y65153D01*
X140632Y65162D01*
X142128Y65562D01*
X142248Y65622D01*
X142380Y65648D01*
X143811Y66241D01*
X143923Y66315D01*
X144050Y66359D01*
X145391Y67133D01*
X145492Y67221D01*
X145613Y67281D01*
X146841Y68223D01*
X146930Y68325D01*
X147041Y68399D01*
X148136Y69494D01*
X148211Y69606D01*
X148312Y69695D01*
X149255Y70923D01*
X149314Y71043D01*
X149403Y71145D01*
X150177Y72486D01*
X150220Y72613D01*
X150295Y72725D01*
X150887Y74155D01*
X150914Y74287D01*
X150973Y74408D01*
X151374Y75903D01*
X151383Y76038D01*
X151426Y76165D01*
X151628Y77700D01*
X151619Y77834D01*
X151646Y77966D01*
Y79514D01*
X151619Y79646D01*
X151628Y79781D01*
X151426Y81315D01*
X151383Y81443D01*
X151374Y81577D01*
X150973Y83073D01*
X150914Y83193D01*
X150887Y83325D01*
X150295Y84756D01*
X150220Y84867D01*
X150177Y84995D01*
X149403Y86336D01*
X149314Y86437D01*
X149255Y86558D01*
X148312Y87786D01*
X148211Y87875D01*
X148136Y87986D01*
X147041Y89081D01*
X146930Y89156D01*
X146841Y89257D01*
X145613Y90200D01*
X145492Y90259D01*
X145391Y90348D01*
X144050Y91122D01*
X143923Y91165D01*
X143811Y91240D01*
X142380Y91832D01*
X142248Y91859D01*
X142128Y91918D01*
X140632Y92319D01*
X140498Y92328D01*
X140371Y92371D01*
X138836Y92573D01*
X138701Y92564D01*
X138569Y92590D01*
D02*
G37*
G36*
X99199D02*
X97651D01*
X97519Y92564D01*
X97385Y92573D01*
X95850Y92371D01*
X95723Y92328D01*
X95588Y92319D01*
X94093Y91918D01*
X93972Y91859D01*
X93840Y91832D01*
X92410Y91240D01*
X92298Y91165D01*
X92171Y91122D01*
X90830Y90348D01*
X90728Y90259D01*
X90608Y90200D01*
X89380Y89257D01*
X89291Y89156D01*
X89179Y89081D01*
X88084Y87986D01*
X88010Y87875D01*
X87908Y87786D01*
X86966Y86558D01*
X86906Y86437D01*
X86818Y86336D01*
X86044Y84995D01*
X86000Y84867D01*
X85926Y84756D01*
X85333Y83325D01*
X85307Y83193D01*
X85247Y83073D01*
X84847Y81577D01*
X84838Y81443D01*
X84794Y81315D01*
X84592Y79780D01*
X84601Y79646D01*
X84575Y79514D01*
Y77966D01*
X84601Y77834D01*
X84592Y77700D01*
X84794Y76165D01*
X84838Y76037D01*
X84847Y75903D01*
X85247Y74408D01*
X85307Y74287D01*
X85333Y74155D01*
X85926Y72725D01*
X86000Y72613D01*
X86044Y72486D01*
X86818Y71145D01*
X86906Y71043D01*
X86966Y70923D01*
X87908Y69695D01*
X88010Y69606D01*
X88084Y69494D01*
X89179Y68399D01*
X89291Y68325D01*
X89380Y68223D01*
X90608Y67281D01*
X90728Y67221D01*
X90830Y67133D01*
X92171Y66359D01*
X92298Y66315D01*
X92410Y66241D01*
X93840Y65648D01*
X93972Y65622D01*
X94093Y65562D01*
X95588Y65162D01*
X95723Y65153D01*
X95850Y65109D01*
X97385Y64907D01*
X97519Y64916D01*
X97651Y64890D01*
X99199D01*
X99331Y64916D01*
X99466Y64907D01*
X101000Y65109D01*
X101128Y65153D01*
X101262Y65162D01*
X102758Y65562D01*
X102878Y65622D01*
X103010Y65648D01*
X104441Y66241D01*
X104552Y66315D01*
X104680Y66359D01*
X106021Y67133D01*
X106122Y67221D01*
X106243Y67281D01*
X107471Y68223D01*
X107560Y68325D01*
X107671Y68399D01*
X108766Y69494D01*
X108841Y69606D01*
X108942Y69695D01*
X109885Y70923D01*
X109944Y71043D01*
X110033Y71145D01*
X110807Y72486D01*
X110850Y72613D01*
X110925Y72725D01*
X111517Y74155D01*
X111544Y74287D01*
X111603Y74408D01*
X112004Y75903D01*
X112013Y76038D01*
X112056Y76165D01*
X112258Y77700D01*
X112249Y77834D01*
X112275Y77966D01*
Y79514D01*
X112249Y79646D01*
X112258Y79781D01*
X112056Y81315D01*
X112013Y81443D01*
X112004Y81577D01*
X111603Y83073D01*
X111544Y83193D01*
X111517Y83325D01*
X110925Y84756D01*
X110850Y84867D01*
X110807Y84995D01*
X110033Y86336D01*
X109944Y86437D01*
X109885Y86558D01*
X108942Y87786D01*
X108841Y87875D01*
X108766Y87986D01*
X107671Y89081D01*
X107560Y89156D01*
X107471Y89257D01*
X106243Y90200D01*
X106122Y90259D01*
X106021Y90348D01*
X104680Y91122D01*
X104552Y91165D01*
X104441Y91240D01*
X103010Y91832D01*
X102878Y91859D01*
X102758Y91918D01*
X101262Y92319D01*
X101128Y92328D01*
X101000Y92371D01*
X99466Y92573D01*
X99331Y92564D01*
X99199Y92590D01*
D02*
G37*
G36*
X177939Y407551D02*
X176391D01*
X176259Y407525D01*
X176125Y407534D01*
X174590Y407332D01*
X174463Y407288D01*
X174328Y407279D01*
X172833Y406879D01*
X172712Y406819D01*
X172580Y406793D01*
X171150Y406201D01*
X171038Y406126D01*
X170911Y406082D01*
X169570Y405308D01*
X169469Y405220D01*
X169348Y405160D01*
X168120Y404218D01*
X168031Y404116D01*
X167919Y404042D01*
X166824Y402947D01*
X166750Y402835D01*
X166648Y402746D01*
X165706Y401518D01*
X165647Y401397D01*
X165558Y401296D01*
X164784Y399956D01*
X164740Y399828D01*
X164666Y399716D01*
X164073Y398286D01*
X164047Y398154D01*
X163988Y398033D01*
X163587Y396538D01*
X163578Y396404D01*
X163535Y396276D01*
X163333Y394741D01*
X163341Y394607D01*
X163315Y394475D01*
Y392927D01*
X163341Y392795D01*
X163333Y392660D01*
X163535Y391125D01*
X163578Y390998D01*
X163587Y390864D01*
X163988Y389368D01*
X164047Y389248D01*
X164073Y389116D01*
X164666Y387685D01*
X164740Y387574D01*
X164784Y387446D01*
X165558Y386105D01*
X165647Y386004D01*
X165706Y385883D01*
X166648Y384655D01*
X166750Y384566D01*
X166824Y384455D01*
X167919Y383360D01*
X168031Y383285D01*
X168120Y383184D01*
X169348Y382241D01*
X169469Y382182D01*
X169570Y382093D01*
X170911Y381319D01*
X171038Y381276D01*
X171150Y381201D01*
X172580Y380609D01*
X172712Y380582D01*
X172833Y380523D01*
X174328Y380122D01*
X174463Y380113D01*
X174590Y380070D01*
X176125Y379868D01*
X176259Y379877D01*
X176391Y379851D01*
X177939D01*
X178071Y379877D01*
X178206Y379868D01*
X179741Y380070D01*
X179868Y380113D01*
X180002Y380122D01*
X181498Y380523D01*
X181618Y380582D01*
X181750Y380609D01*
X183181Y381201D01*
X183293Y381276D01*
X183420Y381319D01*
X184761Y382093D01*
X184862Y382182D01*
X184983Y382241D01*
X186211Y383184D01*
X186300Y383285D01*
X186411Y383360D01*
X187506Y384455D01*
X187581Y384566D01*
X187682Y384655D01*
X188625Y385883D01*
X188684Y386004D01*
X188773Y386105D01*
X189547Y387446D01*
X189590Y387574D01*
X189665Y387685D01*
X190258Y389116D01*
X190284Y389248D01*
X190343Y389368D01*
X190744Y390864D01*
X190753Y390998D01*
X190796Y391125D01*
X190998Y392660D01*
X190989Y392795D01*
X191016Y392927D01*
Y394475D01*
X190989Y394607D01*
X190998Y394741D01*
X190796Y396276D01*
X190753Y396404D01*
X190744Y396538D01*
X190343Y398033D01*
X190284Y398154D01*
X190258Y398286D01*
X189665Y399716D01*
X189590Y399828D01*
X189547Y399956D01*
X188773Y401296D01*
X188684Y401397D01*
X188625Y401518D01*
X187682Y402746D01*
X187581Y402835D01*
X187506Y402947D01*
X186411Y404042D01*
X186300Y404116D01*
X186211Y404218D01*
X184983Y405160D01*
X184862Y405220D01*
X184761Y405308D01*
X183420Y406082D01*
X183293Y406126D01*
X183181Y406201D01*
X181750Y406793D01*
X181618Y406819D01*
X181498Y406879D01*
X180002Y407279D01*
X179868Y407288D01*
X179741Y407332D01*
X178206Y407534D01*
X178071Y407525D01*
X177939Y407551D01*
D02*
G37*
G36*
X217310D02*
X215761D01*
X215629Y407525D01*
X215495Y407534D01*
X213960Y407332D01*
X213833Y407288D01*
X213699Y407279D01*
X212203Y406879D01*
X212082Y406819D01*
X211950Y406793D01*
X210520Y406201D01*
X210408Y406126D01*
X210281Y406082D01*
X208940Y405308D01*
X208839Y405220D01*
X208718Y405160D01*
X207490Y404218D01*
X207401Y404116D01*
X207289Y404042D01*
X206194Y402947D01*
X206120Y402835D01*
X206019Y402746D01*
X205076Y401518D01*
X205017Y401397D01*
X204928Y401296D01*
X204154Y399956D01*
X204111Y399828D01*
X204036Y399716D01*
X203443Y398286D01*
X203417Y398154D01*
X203358Y398033D01*
X202957Y396538D01*
X202948Y396404D01*
X202905Y396276D01*
X202703Y394741D01*
X202712Y394607D01*
X202685Y394475D01*
Y392927D01*
X202712Y392795D01*
X202703Y392660D01*
X202905Y391125D01*
X202948Y390998D01*
X202957Y390864D01*
X203358Y389368D01*
X203417Y389248D01*
X203443Y389116D01*
X204036Y387685D01*
X204111Y387574D01*
X204154Y387446D01*
X204928Y386105D01*
X205017Y386004D01*
X205076Y385883D01*
X206019Y384655D01*
X206120Y384566D01*
X206194Y384455D01*
X207289Y383360D01*
X207401Y383285D01*
X207490Y383184D01*
X208718Y382241D01*
X208839Y382182D01*
X208940Y382093D01*
X210281Y381319D01*
X210408Y381276D01*
X210520Y381201D01*
X211950Y380609D01*
X212082Y380582D01*
X212203Y380523D01*
X213699Y380122D01*
X213833Y380113D01*
X213960Y380070D01*
X215495Y379868D01*
X215629Y379877D01*
X215761Y379851D01*
X217310D01*
X217442Y379877D01*
X217576Y379868D01*
X219111Y380070D01*
X219238Y380113D01*
X219372Y380122D01*
X220868Y380523D01*
X220988Y380582D01*
X221121Y380609D01*
X222551Y381201D01*
X222663Y381276D01*
X222790Y381319D01*
X224131Y382093D01*
X224232Y382182D01*
X224353Y382241D01*
X225581Y383184D01*
X225670Y383285D01*
X225782Y383360D01*
X226876Y384455D01*
X226951Y384566D01*
X227052Y384655D01*
X227995Y385883D01*
X228054Y386004D01*
X228143Y386105D01*
X228917Y387446D01*
X228960Y387574D01*
X229035Y387685D01*
X229628Y389116D01*
X229654Y389248D01*
X229713Y389368D01*
X230114Y390864D01*
X230123Y390998D01*
X230166Y391125D01*
X230368Y392660D01*
X230359Y392795D01*
X230386Y392927D01*
Y394475D01*
X230359Y394607D01*
X230368Y394741D01*
X230166Y396276D01*
X230123Y396404D01*
X230114Y396538D01*
X229713Y398033D01*
X229654Y398154D01*
X229628Y398286D01*
X229035Y399716D01*
X228960Y399828D01*
X228917Y399956D01*
X228143Y401296D01*
X228054Y401397D01*
X227995Y401518D01*
X227052Y402746D01*
X226951Y402835D01*
X226876Y402947D01*
X225782Y404042D01*
X225670Y404116D01*
X225581Y404218D01*
X224353Y405160D01*
X224232Y405220D01*
X224131Y405308D01*
X222790Y406082D01*
X222663Y406126D01*
X222551Y406201D01*
X221121Y406793D01*
X220988Y406819D01*
X220868Y406879D01*
X219372Y407279D01*
X219238Y407288D01*
X219111Y407332D01*
X217576Y407534D01*
X217442Y407525D01*
X217310Y407551D01*
D02*
G37*
G36*
X256680D02*
X255131D01*
X254999Y407525D01*
X254865Y407534D01*
X253330Y407332D01*
X253203Y407288D01*
X253069Y407279D01*
X251573Y406879D01*
X251452Y406819D01*
X251321Y406793D01*
X249890Y406201D01*
X249778Y406126D01*
X249651Y406082D01*
X248310Y405308D01*
X248209Y405220D01*
X248088Y405160D01*
X246860Y404218D01*
X246771Y404116D01*
X246659Y404042D01*
X245565Y402947D01*
X245490Y402835D01*
X245389Y402746D01*
X244446Y401518D01*
X244387Y401397D01*
X244298Y401296D01*
X243524Y399956D01*
X243481Y399828D01*
X243406Y399716D01*
X242813Y398286D01*
X242787Y398154D01*
X242728Y398033D01*
X242327Y396538D01*
X242318Y396404D01*
X242275Y396276D01*
X242073Y394741D01*
X242082Y394607D01*
X242055Y394475D01*
Y392927D01*
X242082Y392795D01*
X242073Y392660D01*
X242275Y391125D01*
X242318Y390998D01*
X242327Y390864D01*
X242728Y389368D01*
X242787Y389248D01*
X242813Y389116D01*
X243406Y387685D01*
X243481Y387574D01*
X243524Y387446D01*
X244298Y386105D01*
X244387Y386004D01*
X244446Y385883D01*
X245389Y384655D01*
X245490Y384566D01*
X245565Y384455D01*
X246659Y383360D01*
X246771Y383285D01*
X246860Y383184D01*
X248088Y382241D01*
X248209Y382182D01*
X248310Y382093D01*
X249651Y381319D01*
X249778Y381276D01*
X249890Y381201D01*
X251321Y380609D01*
X251452Y380582D01*
X251573Y380523D01*
X253069Y380122D01*
X253203Y380113D01*
X253330Y380070D01*
X254865Y379868D01*
X254999Y379877D01*
X255131Y379851D01*
X256680D01*
X256812Y379877D01*
X256946Y379868D01*
X258481Y380070D01*
X258608Y380113D01*
X258742Y380122D01*
X260238Y380523D01*
X260359Y380582D01*
X260490Y380609D01*
X261921Y381201D01*
X262033Y381276D01*
X262160Y381319D01*
X263501Y382093D01*
X263602Y382182D01*
X263723Y382241D01*
X264951Y383184D01*
X265040Y383285D01*
X265152Y383360D01*
X266247Y384455D01*
X266321Y384566D01*
X266422Y384655D01*
X267365Y385883D01*
X267424Y386004D01*
X267513Y386105D01*
X268287Y387446D01*
X268330Y387574D01*
X268405Y387685D01*
X268998Y389116D01*
X269024Y389248D01*
X269083Y389368D01*
X269484Y390864D01*
X269493Y390998D01*
X269536Y391125D01*
X269738Y392660D01*
X269729Y392795D01*
X269756Y392927D01*
Y394475D01*
X269729Y394607D01*
X269738Y394741D01*
X269536Y396276D01*
X269493Y396404D01*
X269484Y396538D01*
X269083Y398033D01*
X269024Y398154D01*
X268998Y398286D01*
X268405Y399716D01*
X268330Y399828D01*
X268287Y399956D01*
X267513Y401296D01*
X267424Y401397D01*
X267365Y401518D01*
X266422Y402746D01*
X266321Y402835D01*
X266247Y402947D01*
X265152Y404042D01*
X265040Y404116D01*
X264951Y404218D01*
X263723Y405160D01*
X263602Y405220D01*
X263501Y405308D01*
X262160Y406082D01*
X262033Y406126D01*
X261921Y406201D01*
X260490Y406793D01*
X260359Y406819D01*
X260238Y406879D01*
X258742Y407279D01*
X258608Y407288D01*
X258481Y407332D01*
X256946Y407534D01*
X256812Y407525D01*
X256680Y407551D01*
D02*
G37*
G36*
X138569D02*
X137021D01*
X136889Y407525D01*
X136755Y407534D01*
X135220Y407332D01*
X135093Y407288D01*
X134958Y407279D01*
X133463Y406879D01*
X133342Y406819D01*
X133210Y406793D01*
X131780Y406201D01*
X131668Y406126D01*
X131541Y406082D01*
X130200Y405308D01*
X130099Y405220D01*
X129978Y405160D01*
X128750Y404218D01*
X128661Y404116D01*
X128549Y404042D01*
X127454Y402947D01*
X127380Y402835D01*
X127278Y402746D01*
X126336Y401518D01*
X126276Y401397D01*
X126188Y401296D01*
X125414Y399956D01*
X125370Y399828D01*
X125296Y399716D01*
X124703Y398286D01*
X124677Y398154D01*
X124617Y398033D01*
X124217Y396538D01*
X124208Y396404D01*
X124165Y396276D01*
X123962Y394741D01*
X123971Y394607D01*
X123945Y394475D01*
Y392927D01*
X123971Y392795D01*
X123962Y392660D01*
X124165Y391125D01*
X124208Y390998D01*
X124217Y390864D01*
X124617Y389368D01*
X124677Y389248D01*
X124703Y389116D01*
X125296Y387685D01*
X125370Y387574D01*
X125414Y387446D01*
X126188Y386105D01*
X126276Y386004D01*
X126336Y385883D01*
X127278Y384655D01*
X127380Y384566D01*
X127454Y384455D01*
X128549Y383360D01*
X128661Y383285D01*
X128750Y383184D01*
X129978Y382241D01*
X130099Y382182D01*
X130200Y382093D01*
X131541Y381319D01*
X131668Y381276D01*
X131780Y381201D01*
X133210Y380609D01*
X133342Y380582D01*
X133463Y380523D01*
X134958Y380122D01*
X135093Y380113D01*
X135220Y380070D01*
X136755Y379868D01*
X136889Y379877D01*
X137021Y379851D01*
X138569D01*
X138701Y379877D01*
X138836Y379868D01*
X140371Y380070D01*
X140498Y380113D01*
X140632Y380122D01*
X142128Y380523D01*
X142248Y380582D01*
X142380Y380609D01*
X143811Y381201D01*
X143923Y381276D01*
X144050Y381319D01*
X145391Y382093D01*
X145492Y382182D01*
X145613Y382241D01*
X146841Y383184D01*
X146930Y383285D01*
X147041Y383360D01*
X148136Y384455D01*
X148211Y384566D01*
X148312Y384655D01*
X149255Y385883D01*
X149314Y386004D01*
X149403Y386105D01*
X150177Y387446D01*
X150220Y387574D01*
X150295Y387685D01*
X150887Y389116D01*
X150914Y389248D01*
X150973Y389368D01*
X151374Y390864D01*
X151383Y390998D01*
X151426Y391125D01*
X151628Y392660D01*
X151619Y392795D01*
X151646Y392927D01*
Y394475D01*
X151619Y394607D01*
X151628Y394741D01*
X151426Y396276D01*
X151383Y396404D01*
X151374Y396538D01*
X150973Y398033D01*
X150914Y398154D01*
X150887Y398286D01*
X150295Y399716D01*
X150220Y399828D01*
X150177Y399956D01*
X149403Y401296D01*
X149314Y401397D01*
X149255Y401518D01*
X148312Y402746D01*
X148211Y402835D01*
X148136Y402947D01*
X147041Y404042D01*
X146930Y404116D01*
X146841Y404218D01*
X145613Y405160D01*
X145492Y405220D01*
X145391Y405308D01*
X144050Y406082D01*
X143923Y406126D01*
X143811Y406201D01*
X142380Y406793D01*
X142248Y406819D01*
X142128Y406879D01*
X140632Y407279D01*
X140498Y407288D01*
X140371Y407332D01*
X138836Y407534D01*
X138701Y407525D01*
X138569Y407551D01*
D02*
G37*
G36*
X290275Y418429D02*
X288970Y418257D01*
X287754Y417753D01*
X286709Y416952D01*
X285908Y415907D01*
X285404Y414691D01*
X285232Y413385D01*
X285404Y412080D01*
X285908Y410864D01*
X286709Y409820D01*
X287754Y409018D01*
X288970Y408514D01*
X290275Y408342D01*
X290320Y408348D01*
X291745Y406923D01*
Y405543D01*
X290126D01*
Y395638D01*
X300425D01*
Y405543D01*
X298806D01*
Y408385D01*
X298686Y409299D01*
X298333Y410150D01*
X297772Y410881D01*
X295312Y413341D01*
X295318Y413385D01*
X295147Y414691D01*
X294643Y415907D01*
X293841Y416952D01*
X292797Y417753D01*
X291581Y418257D01*
X290275Y418429D01*
D02*
G37*
G36*
X59829Y407551D02*
X58281D01*
X58149Y407525D01*
X58015Y407534D01*
X56480Y407332D01*
X56352Y407288D01*
X56218Y407279D01*
X54723Y406879D01*
X54602Y406819D01*
X54470Y406793D01*
X53040Y406201D01*
X52928Y406126D01*
X52800Y406082D01*
X51460Y405308D01*
X51358Y405220D01*
X51238Y405160D01*
X50010Y404218D01*
X49921Y404116D01*
X49809Y404042D01*
X48714Y402947D01*
X48639Y402835D01*
X48538Y402746D01*
X47596Y401518D01*
X47536Y401397D01*
X47448Y401296D01*
X46673Y399956D01*
X46630Y399828D01*
X46555Y399716D01*
X45963Y398286D01*
X45937Y398154D01*
X45877Y398033D01*
X45476Y396538D01*
X45468Y396404D01*
X45424Y396276D01*
X45222Y394741D01*
X45231Y394607D01*
X45205Y394475D01*
Y392927D01*
X45231Y392795D01*
X45222Y392660D01*
X45424Y391125D01*
X45468Y390998D01*
X45476Y390864D01*
X45877Y389368D01*
X45937Y389248D01*
X45963Y389116D01*
X46555Y387685D01*
X46630Y387574D01*
X46673Y387446D01*
X47448Y386105D01*
X47536Y386004D01*
X47596Y385883D01*
X48538Y384655D01*
X48639Y384566D01*
X48714Y384455D01*
X49809Y383360D01*
X49921Y383285D01*
X50010Y383184D01*
X51238Y382241D01*
X51358Y382182D01*
X51460Y382093D01*
X52800Y381319D01*
X52928Y381276D01*
X53040Y381201D01*
X54470Y380609D01*
X54602Y380582D01*
X54723Y380523D01*
X56218Y380122D01*
X56352Y380113D01*
X56480Y380070D01*
X58015Y379868D01*
X58149Y379877D01*
X58281Y379851D01*
X59829D01*
X59961Y379877D01*
X60095Y379868D01*
X61630Y380070D01*
X61758Y380113D01*
X61892Y380122D01*
X63388Y380523D01*
X63508Y380582D01*
X63640Y380609D01*
X65071Y381201D01*
X65182Y381276D01*
X65310Y381319D01*
X66651Y382093D01*
X66752Y382182D01*
X66872Y382241D01*
X68101Y383184D01*
X68189Y383285D01*
X68301Y383360D01*
X69396Y384455D01*
X69471Y384566D01*
X69572Y384655D01*
X70515Y385883D01*
X70574Y386004D01*
X70663Y386105D01*
X71437Y387446D01*
X71480Y387574D01*
X71555Y387685D01*
X72147Y389116D01*
X72174Y389248D01*
X72233Y389368D01*
X72634Y390864D01*
X72642Y390998D01*
X72686Y391125D01*
X72888Y392660D01*
X72879Y392795D01*
X72905Y392927D01*
Y394475D01*
X72879Y394607D01*
X72888Y394741D01*
X72686Y396276D01*
X72642Y396404D01*
X72634Y396538D01*
X72233Y398033D01*
X72174Y398154D01*
X72147Y398286D01*
X71555Y399716D01*
X71480Y399828D01*
X71437Y399956D01*
X70663Y401296D01*
X70574Y401397D01*
X70515Y401518D01*
X69572Y402746D01*
X69471Y402835D01*
X69396Y402947D01*
X68301Y404042D01*
X68189Y404116D01*
X68101Y404218D01*
X66872Y405160D01*
X66752Y405220D01*
X66651Y405308D01*
X65310Y406082D01*
X65182Y406126D01*
X65071Y406201D01*
X63640Y406793D01*
X63508Y406819D01*
X63388Y406879D01*
X61892Y407279D01*
X61758Y407288D01*
X61630Y407332D01*
X60095Y407534D01*
X59961Y407525D01*
X59829Y407551D01*
D02*
G37*
G36*
X99199D02*
X97651D01*
X97519Y407525D01*
X97385Y407534D01*
X95850Y407332D01*
X95723Y407288D01*
X95588Y407279D01*
X94093Y406879D01*
X93972Y406819D01*
X93840Y406793D01*
X92410Y406201D01*
X92298Y406126D01*
X92171Y406082D01*
X90830Y405308D01*
X90728Y405220D01*
X90608Y405160D01*
X89380Y404218D01*
X89291Y404116D01*
X89179Y404042D01*
X88084Y402947D01*
X88010Y402835D01*
X87908Y402746D01*
X86966Y401518D01*
X86906Y401397D01*
X86818Y401296D01*
X86044Y399956D01*
X86000Y399828D01*
X85926Y399716D01*
X85333Y398286D01*
X85307Y398154D01*
X85247Y398033D01*
X84847Y396538D01*
X84838Y396404D01*
X84794Y396276D01*
X84592Y394741D01*
X84601Y394607D01*
X84575Y394475D01*
Y392927D01*
X84601Y392795D01*
X84592Y392660D01*
X84794Y391125D01*
X84838Y390998D01*
X84847Y390864D01*
X85247Y389368D01*
X85307Y389248D01*
X85333Y389116D01*
X85926Y387685D01*
X86000Y387574D01*
X86044Y387446D01*
X86818Y386105D01*
X86906Y386004D01*
X86966Y385883D01*
X87908Y384655D01*
X88010Y384566D01*
X88084Y384455D01*
X89179Y383360D01*
X89291Y383285D01*
X89380Y383184D01*
X90608Y382241D01*
X90728Y382182D01*
X90830Y382093D01*
X92171Y381319D01*
X92298Y381276D01*
X92410Y381201D01*
X93840Y380609D01*
X93972Y380582D01*
X94093Y380523D01*
X95588Y380122D01*
X95723Y380113D01*
X95850Y380070D01*
X97385Y379868D01*
X97519Y379877D01*
X97651Y379851D01*
X99199D01*
X99331Y379877D01*
X99466Y379868D01*
X101000Y380070D01*
X101128Y380113D01*
X101262Y380122D01*
X102758Y380523D01*
X102878Y380582D01*
X103010Y380609D01*
X104441Y381201D01*
X104552Y381276D01*
X104680Y381319D01*
X106021Y382093D01*
X106122Y382182D01*
X106243Y382241D01*
X107471Y383184D01*
X107560Y383285D01*
X107671Y383360D01*
X108766Y384455D01*
X108841Y384566D01*
X108942Y384655D01*
X109885Y385883D01*
X109944Y386004D01*
X110033Y386105D01*
X110807Y387446D01*
X110850Y387574D01*
X110925Y387685D01*
X111517Y389116D01*
X111544Y389248D01*
X111603Y389368D01*
X112004Y390864D01*
X112013Y390998D01*
X112056Y391125D01*
X112258Y392660D01*
X112249Y392795D01*
X112275Y392927D01*
Y394475D01*
X112249Y394607D01*
X112258Y394741D01*
X112056Y396276D01*
X112013Y396404D01*
X112004Y396538D01*
X111603Y398033D01*
X111544Y398154D01*
X111517Y398286D01*
X110925Y399716D01*
X110850Y399828D01*
X110807Y399956D01*
X110033Y401296D01*
X109944Y401397D01*
X109885Y401518D01*
X108942Y402746D01*
X108841Y402835D01*
X108766Y402947D01*
X107671Y404042D01*
X107560Y404116D01*
X107471Y404218D01*
X106243Y405160D01*
X106122Y405220D01*
X106021Y405308D01*
X104680Y406082D01*
X104552Y406126D01*
X104441Y406201D01*
X103010Y406793D01*
X102878Y406819D01*
X102758Y406879D01*
X101262Y407279D01*
X101128Y407288D01*
X101000Y407332D01*
X99466Y407534D01*
X99331Y407525D01*
X99199Y407551D01*
D02*
G37*
%LPD*%
D10*
X295276Y85630D02*
D03*
Y71850D02*
D03*
Y386811D02*
D03*
Y400591D02*
D03*
D11*
X308071Y78740D02*
D03*
X321850D02*
D03*
X308071Y118110D02*
D03*
X321850D02*
D03*
X308071Y157480D02*
D03*
X321850D02*
D03*
X308071Y196850D02*
D03*
X321850D02*
D03*
X308071Y236221D02*
D03*
X321850D02*
D03*
X308071Y275591D02*
D03*
X321850D02*
D03*
X308071Y314961D02*
D03*
X321850D02*
D03*
X308071Y354331D02*
D03*
X321850D02*
D03*
X308071Y393701D02*
D03*
X321850D02*
D03*
D12*
X290275Y413385D02*
X295276Y408385D01*
Y400591D02*
Y408385D01*
X290275Y59055D02*
X295276Y64055D01*
Y71850D01*
X321850Y393701D02*
X330709D01*
X321850Y354331D02*
X330709D01*
X321850Y314961D02*
X330709D01*
X321850Y275591D02*
X330709D01*
X321850Y236221D02*
X330709D01*
X321850Y196850D02*
X330709D01*
X321850Y157480D02*
X330709D01*
X321850Y118110D02*
X330709D01*
X321850Y78740D02*
X330709D01*
D13*
X308071Y118110D02*
Y157480D01*
Y196850D01*
Y236221D01*
Y275591D01*
Y314961D02*
Y354331D01*
X295276Y386811D02*
X308071D01*
Y354331D02*
Y386811D01*
Y393701D01*
X295276Y85630D02*
X308071D01*
Y78740D02*
Y85630D01*
Y118110D01*
X283465Y286221D02*
X308071D01*
Y275591D02*
Y286221D01*
Y314961D01*
D14*
X300276Y413386D02*
D03*
X290275Y413385D02*
D03*
X300276Y59055D02*
D03*
X290275Y59055D02*
D03*
D15*
X283465Y246220D02*
D03*
Y236221D02*
D03*
Y226220D02*
D03*
Y206221D02*
D03*
Y216220D02*
D03*
Y276220D02*
D03*
Y256221D02*
D03*
Y266220D02*
D03*
Y196221D02*
D03*
Y186221D02*
D03*
D16*
Y286221D02*
D03*
D17*
X330709Y78740D02*
D03*
Y118110D02*
D03*
Y157480D02*
D03*
Y196850D02*
D03*
Y236221D02*
D03*
Y275591D02*
D03*
Y314961D02*
D03*
Y354331D02*
D03*
Y393701D02*
D03*
M02*
